<svg width="229" height="51" viewBox="0 0 229 51" fill="none" xmlns="http://www.w3.org/2000/svg">
                <path
                    d="M37.2037 24.1602C38.2051 24.1726 39.1988 23.9843 40.1263 23.6065C41.0537 23.2286 41.8961 22.6689 42.6037 21.9602L49.6787 14.8852C50.1444 14.4168 50.4057 13.7832 50.4057 13.1227C50.4057 12.4623 50.1444 11.8286 49.6787 11.3602C49.4463 11.1259 49.1698 10.9399 48.8652 10.813C48.5605 10.6861 48.2338 10.6207 47.9037 10.6207C47.5737 10.6207 47.2469 10.6861 46.9423 10.813C46.6376 10.9399 46.3611 11.1259 46.1287 11.3602L38.9787 18.4102C38.7463 18.6446 38.4698 18.8305 38.1652 18.9575C37.8605 19.0844 37.5338 19.1497 37.2037 19.1497C36.8737 19.1497 36.5469 19.0844 36.2423 18.9575C35.9376 18.8305 35.6611 18.6446 35.4287 18.4102L44.2787 9.58523C44.5118 9.35213 44.6967 9.07541 44.8229 8.77085C44.949 8.4663 45.014 8.13988 45.014 7.81023C45.014 7.48058 44.949 7.15416 44.8229 6.84961C44.6967 6.54505 44.5118 6.26833 44.2787 6.03523C44.0456 5.80213 43.7689 5.61723 43.4644 5.49108C43.1598 5.36493 42.8334 5.3 42.5037 5.3C42.1741 5.3 41.8477 5.36493 41.5431 5.49108C41.2385 5.61723 40.9618 5.80213 40.7287 6.03523L31.9037 14.8852C31.4381 14.4168 31.1767 13.7832 31.1767 13.1227C31.1767 12.4623 31.4381 11.8286 31.9037 11.3602L38.9787 4.28523C39.2118 4.05213 39.3967 3.77541 39.5229 3.47085C39.649 3.1663 39.714 2.83988 39.714 2.51023C39.714 2.18058 39.649 1.85416 39.5229 1.54961C39.3967 1.24505 39.2118 0.968326 38.9787 0.735229C38.7456 0.502133 38.4689 0.317231 38.1644 0.19108C37.8598 0.0649292 37.5334 -6.49815e-09 37.2037 0C36.8741 6.49815e-09 36.5477 0.0649291 36.2431 0.19108C35.9386 0.317231 35.6618 0.502133 35.4287 0.735229L28.3537 7.81023C26.9492 9.21648 26.1603 11.1227 26.1603 13.1102C26.1603 15.0977 26.9492 17.004 28.3537 18.4102L25.1037 21.6352L4.42873 0.885229L4.17873 0.735229C4.05093 0.623729 3.90781 0.531121 3.75373 0.46023L3.30373 0.285229L3.00373 0.0852293H2.82873H2.32873C2.17968 0.0613956 2.02778 0.0613956 1.87873 0.0852293C1.72738 0.140315 1.58437 0.216029 1.45373 0.310229L1.05373 0.560229H0.878728L0.728728 0.810229C0.622918 0.942227 0.53078 1.08462 0.453729 1.23523C0.380511 1.38767 0.321915 1.54672 0.278728 1.71023C0.278728 1.71023 0.278728 1.88523 0.278728 1.98523C-0.327933 6.21376 0.0588535 10.5255 1.40842 14.5785C2.75799 18.6316 5.03322 22.3145 8.05373 25.3352L14.6537 31.9102L1.12873 45.4102C0.894408 45.6426 0.708422 45.9191 0.5815 46.2238C0.454578 46.5284 0.389233 46.8552 0.389233 47.1852C0.389233 47.5153 0.454578 47.842 0.5815 48.1467C0.708422 48.4513 0.894408 48.7278 1.12873 48.9602C1.36233 49.1919 1.63937 49.3752 1.94396 49.4997C2.24856 49.6241 2.57471 49.6871 2.90373 49.6852C3.23274 49.6871 3.5589 49.6241 3.86349 49.4997C4.16809 49.3752 4.44513 49.1919 4.67873 48.9602L19.8537 34.0102L26.9287 26.9352L31.9287 21.9352C33.3237 23.3452 35.2204 24.1452 37.2037 24.1602ZM18.0787 28.7102L11.5037 22.1102C7.89987 18.4571 5.64335 13.6884 5.10373 8.58523L21.6287 25.0852L18.0787 28.7102ZM33.6787 30.1352C33.208 29.6612 32.5682 29.3935 31.9001 29.3912C31.232 29.3888 30.5903 29.652 30.1162 30.1227C29.6422 30.5935 29.3745 31.2333 29.3722 31.9014C29.3698 32.5695 29.633 33.2112 30.1037 33.6852L45.8537 49.4352C46.3312 49.8697 46.9583 50.1027 47.6037 50.0852C47.9327 50.0871 48.2589 50.0241 48.5635 49.8997C48.8681 49.7752 49.1451 49.5919 49.3787 49.3602C49.613 49.1278 49.799 48.8513 49.926 48.5467C50.0529 48.242 50.1182 47.9153 50.1182 47.5852C50.1182 47.2552 50.0529 46.9284 49.926 46.6238C49.799 46.3191 49.613 46.0426 49.3787 45.8102L33.6787 30.1352Z"
                    fill="url(#paint0_linear_0_1)" />
                <path
                    d="M68.7498 26.0471C69.2618 25.9991 69.7818 26.0231 70.3098 26.1191C70.8378 26.2151 71.2538 26.3591 71.5578 26.5511C71.4298 28.4231 70.8298 29.8631 69.7578 30.8711C68.6858 31.8791 67.2058 32.3831 65.3178 32.3831C63.4298 32.3831 61.9578 31.7511 60.9018 30.4871C59.8618 29.2071 59.3418 27.4071 59.3418 25.0871C59.3418 22.1751 60.0618 19.7511 61.5018 17.8151C62.9578 15.8791 64.8058 14.9111 67.0458 14.9111C68.5018 14.9111 69.6298 15.3671 70.4298 16.2791C71.2298 17.1911 71.6698 18.5111 71.7498 20.2391C71.1418 20.5271 70.5978 20.7191 70.1178 20.8151C69.6378 20.9111 69.0458 20.9511 68.3418 20.9351C68.3738 19.6711 68.2298 18.7351 67.9098 18.1271C67.6058 17.5031 67.1178 17.1911 66.4458 17.1911C65.5658 17.1911 64.8138 17.8631 64.1898 19.2071C63.5818 20.5511 63.2778 22.2231 63.2778 24.2231C63.2778 26.0951 63.5258 27.5351 64.0218 28.5431C64.5338 29.5351 65.2618 30.0311 66.2058 30.0311C67.1018 30.0311 67.7738 29.6791 68.2218 28.9751C68.6698 28.2551 68.8458 27.2791 68.7498 26.0471ZM77.8191 31.7831C76.3471 31.7831 75.2271 31.2151 74.4591 30.0791C73.6911 28.9271 73.3071 27.2791 73.3071 25.1351C73.3071 23.9991 73.4191 22.8231 73.6431 21.6071C73.8671 20.3911 74.1071 19.5431 74.3631 19.0631C74.6511 18.9991 74.9311 18.9511 75.2031 18.9191C75.4751 18.8711 75.7391 18.8471 75.9951 18.8471C76.3471 18.8471 76.6511 18.8711 76.9071 18.9191C77.1791 18.9671 77.3871 19.0311 77.5311 19.1111C77.3391 19.9431 77.1951 20.8311 77.0991 21.7751C77.0031 22.7031 76.9551 23.6471 76.9551 24.6071C76.9551 26.1111 77.0751 27.3111 77.3151 28.2071C77.5711 29.1031 77.9231 29.5511 78.3711 29.5511C78.8671 29.5511 79.2431 29.0471 79.4991 28.0391C79.7711 27.0151 79.9071 25.6151 79.9071 23.8391C79.9071 23.1511 79.8751 22.4391 79.8111 21.7031C79.7471 20.9511 79.6831 20.4311 79.6191 20.1431C80.0831 19.9511 80.6511 19.7991 81.3231 19.6871C81.9951 19.5591 82.6431 19.4951 83.2671 19.4951C83.3471 19.8951 83.4031 20.3751 83.4351 20.9351C83.4831 21.4791 83.5071 22.0391 83.5071 22.6151C83.5071 25.6071 83.0271 27.8871 82.0671 29.4551C81.1071 31.0071 79.6911 31.7831 77.8191 31.7831ZM88.6722 13.5431C89.0562 13.5591 89.4082 13.5991 89.7282 13.6631C90.0482 13.7271 90.3122 13.8151 90.5202 13.9271C90.3762 14.2631 90.2162 14.7191 90.0402 15.2951C89.8642 15.8711 89.7282 16.4151 89.6322 16.9271C89.1842 16.9911 88.7122 17.0391 88.2162 17.0711C87.7202 17.0871 87.1842 17.0871 86.6082 17.0711C86.5282 16.8151 86.4642 16.5591 86.4162 16.3031C86.3842 16.0471 86.3682 15.7911 86.3682 15.5351C86.3682 15.2471 86.3922 14.9671 86.4402 14.6951C86.4882 14.4231 86.5522 14.1831 86.6322 13.9751C86.9362 13.8311 87.2482 13.7271 87.5682 13.6631C87.9042 13.5831 88.2722 13.5431 88.6722 13.5431ZM85.9362 19.5191C86.2722 19.3271 86.6482 19.1831 87.0642 19.0871C87.4962 18.9751 87.9522 18.9191 88.4322 18.9191C88.6562 18.9191 88.8802 18.9351 89.1042 18.9671C89.3442 18.9831 89.5762 19.0151 89.8002 19.0631C89.4642 20.3431 89.1922 22.1191 88.9842 24.3911C88.7762 26.6631 88.6722 29.0071 88.6722 31.4231C88.4162 31.5351 88.0962 31.6231 87.7122 31.6871C87.3442 31.7671 86.9602 31.8071 86.5602 31.8071C86.3842 31.8071 86.2242 31.7991 86.0802 31.7831C85.9522 31.7671 85.8322 31.7511 85.7202 31.7351C85.4642 29.5431 85.3522 27.3831 85.3842 25.2551C85.4322 23.1271 85.6162 21.2151 85.9362 19.5191ZM96.6921 23.9591C98.0041 24.8231 98.8761 25.5751 99.3081 26.2151C99.7401 26.8551 99.9561 27.5671 99.9561 28.3511C99.9561 29.5671 99.4761 30.5751 98.5161 31.3751C97.5721 32.1751 96.4041 32.5751 95.0121 32.5751C93.7321 32.5751 92.6681 32.1671 91.8201 31.3511C90.9881 30.5191 90.5721 29.4951 90.5721 28.2791C90.8921 28.1351 91.2921 28.0231 91.7721 27.9431C92.2521 27.8471 92.6681 27.8071 93.0201 27.8231C93.0041 28.6711 93.1721 29.3511 93.5241 29.8631C93.8761 30.3591 94.3641 30.6071 94.9881 30.6071C95.4521 30.6071 95.8121 30.4791 96.0681 30.2231C96.3401 29.9511 96.4761 29.5751 96.4761 29.0951C96.4761 28.6791 96.3321 28.2871 96.0441 27.9191C95.7721 27.5351 95.1561 27.0231 94.1961 26.3831C92.9161 25.5191 92.0681 24.7751 91.6521 24.1511C91.2521 23.5111 91.0521 22.7991 91.0521 22.0151C91.0521 20.8471 91.4601 19.8951 92.2761 19.1591C93.1081 18.4071 94.1881 18.0311 95.5161 18.0311C96.8281 18.0311 97.8761 18.3511 98.6601 18.9911C99.4601 19.6151 99.9801 20.5431 100.22 21.7751C99.8681 21.9991 99.4601 22.1751 98.9961 22.3031C98.5481 22.4311 97.9801 22.5191 97.2921 22.5671C97.1801 21.7351 96.9881 21.1271 96.7161 20.7431C96.4441 20.3591 96.0761 20.1671 95.6121 20.1671C95.2441 20.1671 94.9561 20.2791 94.7481 20.5031C94.5561 20.7271 94.4601 21.0391 94.4601 21.4391C94.4601 21.8231 94.5961 22.1911 94.8681 22.5431C95.1401 22.8791 95.7481 23.3511 96.6921 23.9591ZM105.243 13.5431C105.627 13.5591 105.979 13.5991 106.299 13.6631C106.619 13.7271 106.883 13.8151 107.091 13.9271C106.947 14.2631 106.787 14.7191 106.611 15.2951C106.435 15.8711 106.299 16.4151 106.203 16.9271C105.755 16.9911 105.283 17.0391 104.787 17.0711C104.291 17.0871 103.755 17.0871 103.179 17.0711C103.099 16.8151 103.035 16.5591 102.987 16.3031C102.955 16.0471 102.939 15.7911 102.939 15.5351C102.939 15.2471 102.963 14.9671 103.011 14.6951C103.059 14.4231 103.123 14.1831 103.203 13.9751C103.507 13.8311 103.819 13.7271 104.139 13.6631C104.475 13.5831 104.843 13.5431 105.243 13.5431ZM102.507 19.5191C102.843 19.3271 103.219 19.1831 103.635 19.0871C104.067 18.9751 104.523 18.9191 105.003 18.9191C105.227 18.9191 105.451 18.9351 105.675 18.9671C105.915 18.9831 106.147 19.0151 106.371 19.0631C106.035 20.3431 105.763 22.1191 105.555 24.3911C105.347 26.6631 105.243 29.0071 105.243 31.4231C104.987 31.5351 104.667 31.6231 104.283 31.6871C103.915 31.7671 103.531 31.8071 103.131 31.8071C102.955 31.8071 102.795 31.7991 102.651 31.7831C102.523 31.7671 102.403 31.7511 102.291 31.7351C102.035 29.5431 101.923 27.3831 101.955 25.2551C102.003 23.1271 102.187 21.2151 102.507 19.5191ZM111.811 28.4951C111.811 29.0071 111.819 29.6071 111.835 30.2951C111.867 30.9671 111.899 31.5671 111.931 32.0951C111.579 32.2071 111.115 32.2951 110.539 32.3591C109.979 32.4391 109.451 32.4791 108.955 32.4791C108.779 30.8151 108.611 28.6231 108.451 25.9031C108.307 23.1831 108.235 20.8871 108.235 19.0151C108.523 18.8711 108.907 18.7591 109.387 18.6791C109.883 18.5831 110.387 18.5351 110.899 18.5351C111.123 18.5351 111.355 18.5511 111.595 18.5831C111.835 18.5991 112.091 18.6311 112.363 18.6791C112.331 18.9511 112.291 19.2791 112.243 19.6631C112.211 20.0471 112.179 20.4871 112.147 20.9831C112.627 20.2151 113.163 19.6391 113.755 19.2551C114.347 18.8711 114.995 18.6791 115.699 18.6791C116.771 18.6791 117.563 19.0711 118.075 19.8551C118.603 20.6231 118.867 21.7911 118.867 23.3591C118.867 24.5911 118.763 26.0071 118.555 27.6071C118.363 29.1911 118.155 30.4231 117.931 31.3031C117.451 31.2871 116.915 31.2471 116.323 31.1831C115.747 31.1191 115.131 31.0231 114.475 30.8951C114.747 29.4071 114.955 28.0231 115.099 26.7431C115.243 25.4631 115.315 24.3591 115.315 23.4311C115.315 22.7271 115.227 22.2231 115.051 21.9191C114.875 21.6151 114.595 21.4631 114.211 21.4631C113.795 21.4631 113.387 21.6951 112.987 22.1591C112.587 22.6071 112.243 23.2311 111.955 24.0311C111.907 24.7671 111.867 25.5271 111.835 26.3111C111.819 27.0791 111.811 27.8071 111.811 28.4951ZM124.772 23.5751C125.092 23.6711 125.412 23.7431 125.732 23.7911C126.068 23.8391 126.38 23.8631 126.668 23.8631C126.844 23.8631 127.02 23.8551 127.196 23.8391C127.372 23.8231 127.492 23.8071 127.556 23.7911C127.668 23.3751 127.748 22.9911 127.796 22.6391C127.86 22.2711 127.892 21.9431 127.892 21.6551C127.892 21.1751 127.82 20.8231 127.676 20.5991C127.532 20.3751 127.3 20.2631 126.98 20.2631C126.532 20.2631 126.108 20.5671 125.708 21.1751C125.308 21.7671 124.996 22.5671 124.772 23.5751ZM128.66 27.1511C129.124 27.2311 129.596 27.3991 130.076 27.6551C130.556 27.9111 130.956 28.1991 131.276 28.5191C130.972 29.4151 130.3 30.2151 129.26 30.9191C128.22 31.6071 127.036 31.9511 125.708 31.9511C124.188 31.9511 123.004 31.4631 122.156 30.4871C121.308 29.4951 120.884 28.1591 120.884 26.4791C120.884 24.3511 121.516 22.4631 122.78 20.8151C124.06 19.1511 125.548 18.3191 127.244 18.3191C128.428 18.3191 129.364 18.6471 130.052 19.3031C130.756 19.9431 131.108 20.8071 131.108 21.8951C131.108 22.4071 131.052 22.9591 130.94 23.5511C130.844 24.1431 130.708 24.6791 130.532 25.1591C130.116 25.3511 129.604 25.4951 128.996 25.5911C128.388 25.6711 127.636 25.7111 126.74 25.7111C126.372 25.7111 125.996 25.6871 125.612 25.6391C125.244 25.5911 124.868 25.5191 124.484 25.4231C124.468 25.6791 124.452 25.8711 124.436 25.9991C124.436 26.1271 124.436 26.2471 124.436 26.3591C124.436 27.4471 124.596 28.3031 124.916 28.9271C125.252 29.5511 125.708 29.8631 126.284 29.8631C126.732 29.8631 127.188 29.5831 127.652 29.0231C128.132 28.4631 128.468 27.8391 128.66 27.1511ZM147.429 26.0471C147.941 25.9991 148.461 26.0231 148.989 26.1191C149.517 26.2151 149.933 26.3591 150.237 26.5511C150.109 28.4231 149.509 29.8631 148.437 30.8711C147.365 31.8791 145.885 32.3831 143.997 32.3831C142.109 32.3831 140.637 31.7511 139.581 30.4871C138.541 29.2071 138.021 27.4071 138.021 25.0871C138.021 22.1751 138.741 19.7511 140.181 17.8151C141.637 15.8791 143.485 14.9111 145.725 14.9111C147.181 14.9111 148.309 15.3671 149.109 16.2791C149.909 17.1911 150.349 18.5111 150.429 20.2391C149.821 20.5271 149.277 20.7191 148.797 20.8151C148.317 20.9111 147.725 20.9511 147.021 20.9351C147.053 19.6711 146.909 18.7351 146.589 18.1271C146.285 17.5031 145.797 17.1911 145.125 17.1911C144.245 17.1911 143.493 17.8631 142.869 19.2071C142.261 20.5511 141.957 22.2231 141.957 24.2231C141.957 26.0951 142.205 27.5351 142.701 28.5431C143.213 29.5351 143.941 30.0311 144.885 30.0311C145.781 30.0311 146.453 29.6791 146.901 28.9751C147.349 28.2551 147.525 27.2791 147.429 26.0471ZM151.843 25.8791C151.843 23.6871 152.419 21.9031 153.571 20.5271C154.739 19.1351 156.243 18.4391 158.083 18.4391C159.507 18.4391 160.619 18.8951 161.419 19.8071C162.235 20.7031 162.643 21.9511 162.643 23.5511C162.643 25.8871 162.083 27.8471 160.963 29.4311C159.843 30.9991 158.331 31.7831 156.427 31.7831C154.987 31.7831 153.859 31.2471 153.043 30.1751C152.243 29.1031 151.843 27.6711 151.843 25.8791ZM159.043 24.7511C159.043 23.3431 158.899 22.3031 158.611 21.6311C158.323 20.9591 157.883 20.6231 157.291 20.6231C156.747 20.6231 156.283 21.0791 155.899 21.9911C155.531 22.8871 155.347 24.0151 155.347 25.3751C155.347 26.5751 155.507 27.5831 155.827 28.3991C156.163 29.2151 156.611 29.6231 157.171 29.6231C157.699 29.6231 158.139 29.1431 158.491 28.1831C158.859 27.2071 159.043 26.0631 159.043 24.7511ZM181.429 22.3271C181.429 23.7991 181.285 25.4951 180.997 27.4151C180.709 29.3351 180.381 30.9831 180.013 32.3591C179.405 32.3591 178.797 32.3191 178.189 32.2391C177.597 32.1751 177.021 32.0791 176.461 31.9511C176.941 29.8711 177.293 28.0471 177.517 26.4791C177.757 24.8951 177.877 23.5351 177.877 22.3991C177.877 21.7111 177.789 21.2151 177.613 20.9111C177.453 20.6071 177.181 20.4551 176.797 20.4551C176.429 20.4551 176.061 20.6711 175.693 21.1031C175.341 21.5191 175.021 22.1271 174.733 22.9271C174.749 22.9911 174.757 23.0631 174.757 23.1431C174.757 23.2231 174.757 23.3511 174.757 23.5271C174.757 24.7591 174.653 26.1671 174.445 27.7511C174.237 29.3191 174.021 30.5031 173.797 31.3031C173.333 31.2871 172.821 31.2471 172.261 31.1831C171.717 31.1191 171.125 31.0231 170.485 30.8951C170.773 29.2311 170.981 27.8311 171.109 26.6951C171.253 25.5591 171.325 24.5831 171.325 23.7671C171.325 23.0791 171.237 22.5831 171.061 22.2791C170.901 21.9751 170.629 21.8231 170.245 21.8231C169.861 21.8231 169.477 22.0391 169.093 22.4711C168.709 22.9031 168.381 23.4951 168.109 24.2471C168.093 25.4791 168.077 26.3831 168.061 26.9591C168.061 27.5351 168.061 28.0471 168.061 28.4951C168.061 29.2791 168.061 29.8951 168.061 30.3431C168.077 30.7911 168.101 31.1591 168.133 31.4471C167.781 31.5431 167.317 31.6231 166.741 31.6871C166.181 31.7511 165.653 31.7831 165.157 31.7831C164.917 29.5271 164.717 27.1751 164.557 24.7271C164.397 22.2791 164.317 20.2711 164.317 18.7031C164.605 18.5591 164.989 18.4471 165.469 18.3671C165.949 18.2871 166.453 18.2471 166.981 18.2471C167.269 18.2471 167.533 18.2631 167.773 18.2951C168.013 18.3111 168.245 18.3431 168.469 18.3911C168.437 18.6791 168.397 19.0471 168.349 19.4951C168.317 19.9271 168.277 20.5271 168.229 21.2951C168.693 20.5431 169.237 19.9831 169.861 19.6151C170.485 19.2311 171.165 19.0391 171.901 19.0391C172.461 19.0391 172.933 19.1671 173.317 19.4231C173.701 19.6631 174.013 20.0311 174.253 20.5271C174.765 19.5831 175.373 18.8711 176.077 18.3911C176.781 17.9111 177.565 17.6711 178.429 17.6711C179.437 17.6711 180.189 18.0551 180.685 18.8231C181.181 19.5911 181.429 20.7591 181.429 22.3271ZM187.422 28.9271C187.566 29.0391 187.718 29.1271 187.878 29.1911C188.054 29.2391 188.238 29.2631 188.43 29.2631C189.134 29.2631 189.734 28.6711 190.23 27.4871C190.726 26.2871 190.974 24.7991 190.974 23.0231C190.974 22.2551 190.862 21.6711 190.638 21.2711C190.414 20.8551 190.086 20.6471 189.654 20.6471C189.174 20.6471 188.75 20.8711 188.382 21.3191C188.03 21.7511 187.742 22.3991 187.518 23.2631C187.47 23.8551 187.438 24.5031 187.422 25.2071C187.406 25.9111 187.398 26.7031 187.398 27.5831C187.398 27.9511 187.398 28.2311 187.398 28.4231C187.398 28.6151 187.406 28.7831 187.422 28.9271ZM187.494 31.2551C187.526 31.7831 187.566 32.3351 187.614 32.9111C187.662 33.4871 187.798 34.7191 188.022 36.6071C187.654 36.7191 187.182 36.8071 186.606 36.8711C186.046 36.9511 185.518 36.9911 185.022 36.9911C184.766 35.0711 184.55 32.8231 184.374 30.2471C184.214 27.6551 184.134 25.2791 184.134 23.1191C184.134 22.1751 184.15 21.3271 184.182 20.5751C184.214 19.8231 184.27 19.0791 184.35 18.3431C184.638 18.1831 185.022 18.0631 185.502 17.9831C185.998 17.8871 186.502 17.8391 187.014 17.8391C187.222 17.8391 187.406 17.8551 187.566 17.8871C187.742 17.9031 187.95 17.9431 188.19 18.0071C188.11 18.2791 188.038 18.5831 187.974 18.9191C187.91 19.2551 187.854 19.6391 187.806 20.0711C188.254 19.3671 188.766 18.8391 189.342 18.4871C189.918 18.1351 190.542 17.9591 191.214 17.9591C192.254 17.9591 193.07 18.3831 193.662 19.2311C194.27 20.0631 194.574 21.2071 194.574 22.6631C194.574 25.1911 193.99 27.2631 192.822 28.8791C191.67 30.4951 190.222 31.3031 188.478 31.3031C188.35 31.3031 188.214 31.3031 188.07 31.3031C187.942 31.2871 187.75 31.2711 187.494 31.2551ZM206.418 23.1191C206.418 24.1431 206.274 25.5351 205.986 27.2951C205.714 29.0391 205.37 30.7351 204.954 32.3831C204.49 32.3831 204.01 32.3511 203.514 32.2871C203.018 32.2391 202.562 32.1591 202.146 32.0471C202.21 31.7111 202.25 31.4631 202.266 31.3031C202.298 31.1431 202.33 30.9991 202.362 30.8711C202.026 31.0631 201.65 31.2071 201.234 31.3031C200.818 31.3991 200.378 31.4471 199.914 31.4471C198.682 31.4471 197.69 31.1351 196.938 30.5111C196.202 29.8711 195.834 29.0231 195.834 27.9671C195.834 26.8631 196.282 26.0391 197.178 25.4951C198.09 24.9351 199.442 24.6551 201.234 24.6551C201.57 24.6551 201.866 24.6631 202.122 24.6791C202.394 24.6791 202.674 24.6871 202.962 24.7031C202.962 24.6391 202.962 24.5831 202.962 24.5351C202.962 24.4711 202.962 24.4071 202.962 24.3431C202.962 22.8871 202.842 21.8471 202.602 21.2231C202.362 20.5991 201.978 20.2871 201.45 20.2871C200.922 20.2871 200.474 20.5751 200.106 21.1511C199.738 21.7271 199.546 22.4551 199.53 23.3351C198.746 23.3191 198.098 23.1671 197.586 22.8791C197.074 22.5751 196.706 22.1591 196.482 21.6311C196.738 20.7031 197.362 19.9191 198.354 19.2791C199.346 18.6231 200.49 18.2951 201.786 18.2951C203.306 18.2951 204.458 18.7031 205.242 19.5191C206.026 20.3351 206.418 21.5351 206.418 23.1191ZM199.434 28.1831C199.434 28.6471 199.562 29.0071 199.818 29.2631C200.09 29.5191 200.466 29.6471 200.946 29.6471C201.25 29.6471 201.538 29.6071 201.81 29.5271C202.082 29.4471 202.354 29.3271 202.626 29.1671C202.706 28.5911 202.77 28.0711 202.818 27.6071C202.866 27.1431 202.898 26.6951 202.914 26.2631C201.746 26.2471 200.874 26.3991 200.298 26.7191C199.722 27.0231 199.434 27.5111 199.434 28.1831ZM214.044 23.9591C215.356 24.8231 216.228 25.5751 216.66 26.2151C217.092 26.8551 217.308 27.5671 217.308 28.3511C217.308 29.5671 216.828 30.5751 215.868 31.3751C214.924 32.1751 213.756 32.5751 212.364 32.5751C211.084 32.5751 210.02 32.1671 209.172 31.3511C208.34 30.5191 207.924 29.4951 207.924 28.2791C208.244 28.1351 208.644 28.0231 209.124 27.9431C209.604 27.8471 210.02 27.8071 210.372 27.8231C210.356 28.6711 210.524 29.3511 210.876 29.8631C211.228 30.3591 211.716 30.6071 212.34 30.6071C212.804 30.6071 213.164 30.4791 213.42 30.2231C213.692 29.9511 213.828 29.5751 213.828 29.0951C213.828 28.6791 213.684 28.2871 213.396 27.9191C213.124 27.5351 212.508 27.0231 211.548 26.3831C210.268 25.5191 209.42 24.7751 209.004 24.1511C208.604 23.5111 208.404 22.7991 208.404 22.0151C208.404 20.8471 208.812 19.8951 209.628 19.1591C210.46 18.4071 211.54 18.0311 212.868 18.0311C214.18 18.0311 215.228 18.3511 216.012 18.9911C216.812 19.6151 217.332 20.5431 217.572 21.7751C217.22 21.9991 216.812 22.1751 216.348 22.3031C215.9 22.4311 215.332 22.5191 214.644 22.5671C214.532 21.7351 214.34 21.1271 214.068 20.7431C213.796 20.3591 213.428 20.1671 212.964 20.1671C212.596 20.1671 212.308 20.2791 212.1 20.5031C211.908 20.7271 211.812 21.0391 211.812 21.4391C211.812 21.8231 211.948 22.1911 212.22 22.5431C212.492 22.8791 213.1 23.3511 214.044 23.9591ZM224.637 23.9591C225.949 24.8231 226.821 25.5751 227.253 26.2151C227.685 26.8551 227.901 27.5671 227.901 28.3511C227.901 29.5671 227.421 30.5751 226.461 31.3751C225.517 32.1751 224.349 32.5751 222.957 32.5751C221.677 32.5751 220.613 32.1671 219.765 31.3511C218.933 30.5191 218.517 29.4951 218.517 28.2791C218.837 28.1351 219.237 28.0231 219.717 27.9431C220.197 27.8471 220.613 27.8071 220.965 27.8231C220.949 28.6711 221.117 29.3511 221.469 29.8631C221.821 30.3591 222.309 30.6071 222.933 30.6071C223.397 30.6071 223.757 30.4791 224.013 30.2231C224.285 29.9511 224.421 29.5751 224.421 29.0951C224.421 28.6791 224.277 28.2871 223.989 27.9191C223.717 27.5351 223.101 27.0231 222.141 26.3831C220.861 25.5191 220.013 24.7751 219.597 24.1511C219.197 23.5111 218.997 22.7991 218.997 22.0151C218.997 20.8471 219.405 19.8951 220.221 19.1591C221.053 18.4071 222.133 18.0311 223.461 18.0311C224.773 18.0311 225.821 18.3511 226.605 18.9911C227.405 19.6151 227.925 20.5431 228.165 21.7751C227.813 21.9991 227.405 22.1751 226.941 22.3031C226.493 22.4311 225.925 22.5191 225.237 22.5671C225.125 21.7351 224.933 21.1271 224.661 20.7431C224.389 20.3591 224.021 20.1671 223.557 20.1671C223.189 20.1671 222.901 20.2791 222.693 20.5031C222.501 20.7271 222.405 21.0391 222.405 21.4391C222.405 21.8231 222.541 22.1911 222.813 22.5431C223.085 22.8791 223.693 23.3511 224.637 23.9591Z"
                    fill="url(#paint1_linear_0_1)" />
                <defs>
                    <linearGradient id="paint0_linear_0_1" x1="25.2029" y1="0" x2="25.2029" y2="50.0861"
                        gradientUnits="userSpaceOnUse">
                        <stop stop-color="#BF0000" />
                        <stop offset="1" stop-color="#590000" />
                    </linearGradient>
                    <linearGradient id="paint1_linear_0_1" x1="143.308" y1="5.54309" x2="143.308" y2="36.5431"
                        gradientUnits="userSpaceOnUse">
                        <stop stop-color="#BF0000" />
                        <stop offset="1" stop-color="#590000" />
                    </linearGradient>
                </defs>
            </svg>