<svg width="51" height="51" viewBox="0 0 51 51" fill="none" xmlns="http://www.w3.org/2000/svg">
<path d="M37.2037 24.1602C38.2051 24.1726 39.1988 23.9843 40.1263 23.6065C41.0537 23.2286 41.8961 22.6689 42.6037 21.9602L49.6787 14.8852C50.1444 14.4168 50.4057 13.7832 50.4057 13.1227C50.4057 12.4623 50.1444 11.8286 49.6787 11.3602C49.4463 11.1259 49.1698 10.9399 48.8652 10.813C48.5605 10.6861 48.2338 10.6207 47.9037 10.6207C47.5737 10.6207 47.2469 10.6861 46.9423 10.813C46.6376 10.9399 46.3611 11.1259 46.1287 11.3602L38.9787 18.4102C38.7463 18.6445 38.4698 18.8305 38.1652 18.9575C37.8605 19.0844 37.5338 19.1497 37.2037 19.1497C36.8737 19.1497 36.5469 19.0844 36.2423 18.9575C35.9376 18.8305 35.6611 18.6445 35.4287 18.4102L44.2787 9.58523C44.5118 9.35213 44.6967 9.07541 44.8229 8.77085C44.949 8.4663 45.014 8.13988 45.014 7.81023C45.014 7.48058 44.949 7.15416 44.8229 6.84961C44.6967 6.54505 44.5118 6.26833 44.2787 6.03523C44.0456 5.80213 43.7689 5.61723 43.4644 5.49108C43.1598 5.36493 42.8334 5.3 42.5037 5.3C42.1741 5.3 41.8477 5.36493 41.5431 5.49108C41.2385 5.61723 40.9618 5.80213 40.7287 6.03523L31.9037 14.8852C31.4381 14.4168 31.1767 13.7832 31.1767 13.1227C31.1767 12.4623 31.4381 11.8286 31.9037 11.3602L38.9787 4.28523C39.2118 4.05213 39.3967 3.77541 39.5229 3.47085C39.649 3.1663 39.714 2.83988 39.714 2.51023C39.714 2.18058 39.649 1.85416 39.5229 1.54961C39.3967 1.24505 39.2118 0.968326 38.9787 0.735229C38.7456 0.502133 38.4689 0.317231 38.1644 0.19108C37.8598 0.0649292 37.5334 -6.49815e-09 37.2037 0C36.8741 6.49815e-09 36.5477 0.0649291 36.2431 0.19108C35.9386 0.317231 35.6618 0.502133 35.4287 0.735229L28.3537 7.81023C26.9492 9.21648 26.1603 11.1227 26.1603 13.1102C26.1603 15.0977 26.9492 17.004 28.3537 18.4102L25.1037 21.6352L4.42873 0.885229L4.17873 0.735229C4.05093 0.623729 3.90781 0.531121 3.75373 0.460229L3.30373 0.285229L3.00373 0.0852293H2.82873H2.32873C2.17968 0.0613956 2.02778 0.0613956 1.87873 0.0852293C1.72738 0.140315 1.58437 0.216029 1.45373 0.310229L1.05373 0.560229H0.878728L0.728728 0.810229C0.622918 0.942226 0.53078 1.08462 0.453729 1.23523C0.380511 1.38767 0.321915 1.54672 0.278728 1.71023C0.278728 1.71023 0.278728 1.88523 0.278728 1.98523C-0.327933 6.21376 0.0588535 10.5255 1.40842 14.5785C2.75799 18.6316 5.03322 22.3145 8.05373 25.3352L14.6537 31.9102L1.12873 45.4102C0.894408 45.6426 0.708422 45.9191 0.5815 46.2238C0.454578 46.5284 0.389233 46.8552 0.389233 47.1852C0.389233 47.5153 0.454578 47.842 0.5815 48.1467C0.708422 48.4513 0.894408 48.7278 1.12873 48.9602C1.36233 49.1919 1.63937 49.3752 1.94396 49.4997C2.24856 49.6241 2.57471 49.6871 2.90373 49.6852C3.23274 49.6871 3.5589 49.6241 3.86349 49.4997C4.16809 49.3752 4.44513 49.1919 4.67873 48.9602L19.8537 34.0102L26.9287 26.9352L31.9287 21.9352C33.3237 23.3452 35.2204 24.1452 37.2037 24.1602ZM18.0787 28.7102L11.5037 22.1102C7.89987 18.4571 5.64335 13.6884 5.10373 8.58523L21.6287 25.0852L18.0787 28.7102ZM33.6787 30.1352C33.208 29.6612 32.5682 29.3935 31.9001 29.3912C31.232 29.3888 30.5903 29.652 30.1162 30.1227C29.6422 30.5935 29.3745 31.2333 29.3722 31.9014C29.3698 32.5695 29.633 33.2112 30.1037 33.6852L45.8537 49.4352C46.3312 49.8697 46.9583 50.1027 47.6037 50.0852C47.9327 50.0871 48.2589 50.0241 48.5635 49.8997C48.8681 49.7752 49.1451 49.5919 49.3787 49.3602C49.613 49.1278 49.799 48.8513 49.926 48.5467C50.0529 48.242 50.1182 47.9153 50.1182 47.5852C50.1182 47.2552 50.0529 46.9284 49.926 46.6238C49.799 46.3191 49.613 46.0426 49.3787 45.8102L33.6787 30.1352Z" fill="url(#paint0_linear_3_20)"/>
<defs>
<linearGradient id="paint0_linear_3_20" x1="25.2029" y1="0" x2="25.2029" y2="50.0861" gradientUnits="userSpaceOnUse">
<stop stop-color="#BF0000"/>
<stop offset="1" stop-color="#590000"/>
</linearGradient>
</defs>
</svg>
